<?xml version="1.0" encoding="UTF-8" standalone="no"?>
<!-- Created with Inkscape (http://www.inkscape.org/) -->

<svg
   width="52mm"
   height="75mm"
   viewBox="0 0 52 75"
   version="1.1"
   id="svg1528"
   inkscape:version="1.3.2 (091e20ef0f, 2023-11-25)"
   sodipodi:docname="1.svg"
   inkscape:export-filename="Science2.png"
   inkscape:export-xdpi="96"
   inkscape:export-ydpi="96"
   xml:space="preserve"
   xmlns:inkscape="http://www.inkscape.org/namespaces/inkscape"
   xmlns:sodipodi="http://sodipodi.sourceforge.net/DTD/sodipodi-0.dtd"
   xmlns="http://www.w3.org/2000/svg"
   xmlns:svg="http://www.w3.org/2000/svg"><sodipodi:namedview
     id="namedview1530"
     pagecolor="#ffffff"
     bordercolor="#000000"
     borderopacity="0.25"
     inkscape:showpageshadow="2"
     inkscape:pageopacity="0.0"
     inkscape:pagecheckerboard="0"
     inkscape:deskcolor="#d1d1d1"
     inkscape:document-units="mm"
     showgrid="false"
     inkscape:zoom="2.0107308"
     inkscape:cx="-12.930622"
     inkscape:cy="131.54421"
     inkscape:window-width="1920"
     inkscape:window-height="935"
     inkscape:window-x="0"
     inkscape:window-y="32"
     inkscape:window-maximized="1"
     inkscape:current-layer="layer1" /><defs
     id="defs1525"><filter
       style="color-interpolation-filters:sRGB"
       inkscape:label="Drop Shadow"
       id="filter2636"
       x="-0.026902158"
       y="-0.080136769"
       width="1.0538043"
       height="1.1602735"><feFlood
         flood-opacity="0.498039"
         flood-color="rgb(0,0,0)"
         result="flood"
         id="feFlood2626" /><feComposite
         in="flood"
         in2="SourceGraphic"
         operator="in"
         result="composite1"
         id="feComposite2628" /><feGaussianBlur
         in="composite1"
         stdDeviation="1"
         result="blur"
         id="feGaussianBlur2630" /><feOffset
         dx="0"
         dy="-2.77556e-17"
         result="offset"
         id="feOffset2632" /><feComposite
         in="SourceGraphic"
         in2="offset"
         operator="over"
         result="composite2"
         id="feComposite2634" /></filter><filter
       style="color-interpolation-filters:sRGB"
       inkscape:label="Drop Shadow"
       id="filter2564"
       x="-0.026784027"
       y="-0.17499256"
       width="1.0538549"
       height="1.3499851"><feFlood
         flood-opacity="0.498039"
         flood-color="rgb(0,0,0)"
         result="flood"
         id="feFlood2554" /><feComposite
         in="flood"
         in2="SourceGraphic"
         operator="in"
         result="composite1"
         id="feComposite2556" /><feGaussianBlur
         in="composite1"
         stdDeviation="1"
         result="blur"
         id="feGaussianBlur2558" /><feOffset
         dx="0.025707"
         dy="-2.77556e-17"
         result="offset"
         id="feOffset2560" /><feComposite
         in="SourceGraphic"
         in2="offset"
         operator="over"
         result="composite2"
         id="feComposite2562" /></filter><filter
       style="color-interpolation-filters:sRGB"
       inkscape:label="Drop Shadow"
       id="filter2636-3"
       x="-0.026902158"
       y="-0.080136769"
       width="1.0538043"
       height="1.1602735"><feFlood
         flood-opacity="0.498039"
         flood-color="rgb(0,0,0)"
         result="flood"
         id="feFlood2626-6" /><feComposite
         in="flood"
         in2="SourceGraphic"
         operator="in"
         result="composite1"
         id="feComposite2628-1" /><feGaussianBlur
         in="composite1"
         stdDeviation="1"
         result="blur"
         id="feGaussianBlur2630-0" /><feOffset
         dx="0"
         dy="-2.77556e-17"
         result="offset"
         id="feOffset2632-6" /><feComposite
         in="SourceGraphic"
         in2="offset"
         operator="over"
         result="composite2"
         id="feComposite2634-3" /></filter><filter
       style="color-interpolation-filters:sRGB"
       inkscape:label="Drop Shadow"
       id="filter2564-2"
       x="-0.026784027"
       y="-0.17499256"
       width="1.0538549"
       height="1.3499851"><feFlood
         flood-opacity="0.498039"
         flood-color="rgb(0,0,0)"
         result="flood"
         id="feFlood2554-0" /><feComposite
         in="flood"
         in2="SourceGraphic"
         operator="in"
         result="composite1"
         id="feComposite2556-6" /><feGaussianBlur
         in="composite1"
         stdDeviation="1"
         result="blur"
         id="feGaussianBlur2558-1" /><feOffset
         dx="0.025707"
         dy="-2.77556e-17"
         result="offset"
         id="feOffset2560-5" /><feComposite
         in="SourceGraphic"
         in2="offset"
         operator="over"
         result="composite2"
         id="feComposite2562-5" /></filter></defs><g
     inkscape:label="Layer 1"
     inkscape:groupmode="layer"
     id="layer1"><rect
       style="display:inline;fill:#000000;stroke-width:0.271608"
       id="rect368-94-0-4"
       width="50.999382"
       height="74.171631"
       x="0.56042117"
       y="0.53800601"
       ry="1.2279373"
       rx="1.2279373"
       inkscape:label="Black Border" /><rect
       style="display:inline;fill:#ca8b2b;fill-opacity:1;stroke-width:0.256076"
       id="rect368-3-0-9-7"
       width="47.624882"
       height="70.602379"
       x="2.3476048"
       y="2.3531144"
       inkscape:label="Inside Background" /><rect
       style="display:inline;fill:#8e3017;fill-opacity:1;stroke-width:0.228267;filter:url(#filter2636-3)"
       id="rect368-3-6-7-1-0-6"
       width="89.212173"
       height="29.948799"
       x="-14.552902"
       y="69.024216"
       inkscape:label="Bottom Row Border"
       transform="matrix(0.48072281,0,0,0.48072281,11.657403,23.400028)" /><rect
       style="display:inline;fill:#d7b25f;fill-opacity:1;stroke-width:0.101576"
       id="rect368-3-6-7-2-0-6-5"
       width="41.182983"
       height="12.846464"
       x="5.4487991"
       y="57.427547"
       inkscape:transform-center-x="12.498932"
       inkscape:transform-center-y="-2.1628972"
       inkscape:label="Bottom Row Background" /><text
       xml:space="preserve"
       style="font-weight:bold;font-size:1.69588px;line-height:1;font-family:'LEMON MILK';-inkscape-font-specification:'LEMON MILK Bold';text-align:center;text-anchor:middle;display:inline;fill:#000000;fill-opacity:1;stroke-width:0.284753"
       x="6.2741652"
       y="61.8871"
       id="text40490-8-9-3-1-2-8-6"
       inkscape:label="Bottom Row Description"><tspan
         style="font-style:italic;font-variant:normal;font-weight:normal;font-stretch:normal;font-size:1.69588px;font-family:sans-serif;-inkscape-font-specification:'sans-serif Italic';text-align:start;text-anchor:start;fill:#000000;stroke-width:0.284754"
         x="6.2741652"
         y="61.8871"
         sodipodi:role="line"
         id="tspan3">A program that uses mathematically-defined </tspan><tspan
         style="font-style:italic;font-variant:normal;font-weight:normal;font-stretch:normal;font-size:1.69588px;font-family:sans-serif;-inkscape-font-specification:'sans-serif Italic';text-align:start;text-anchor:start;fill:#000000;stroke-width:0.284754"
         x="6.2741652"
         y="63.678188"
         sodipodi:role="line"
         id="tspan4">lines and curves to build 2D graphics.</tspan></text><text
       xml:space="preserve"
       style="font-weight:bold;font-size:1.69588px;line-height:1.6;font-family:'LEMON MILK';-inkscape-font-specification:'LEMON MILK Bold';text-align:center;letter-spacing:0px;text-anchor:middle;display:inline;fill:#000000;fill-opacity:1;stroke-width:0.284753"
       x="20.968248"
       y="59.697895"
       id="text40490-8-9-3-0-7-2-7"
       inkscape:label="Bottom Row Header"><tspan
         sodipodi:role="line"
         id="tspan40488-7-0-1-5-23-6-4"
         style="font-style:normal;font-variant:normal;font-weight:bold;font-stretch:normal;font-size:1.69588px;font-family:Helvetica-Black;-inkscape-font-specification:'Helvetica-Black Bold';fill:#000000;stroke-width:0.284754"
         x="20.968248"
         y="59.697895">[VECTOR GRAPHIC DESIGNING]</tspan></text><rect
       style="display:inline;fill:#ffffff;fill-opacity:1;stroke-width:0.169961"
       id="rect368-3-6-7-5-5-7-9-3-5"
       width="38.329105"
       height="38.644455"
       x="7.0079031"
       y="15.77267"
       inkscape:label="Black Border Picture" /><rect
       style="display:inline;fill:#cd9c49;fill-opacity:1;stroke-width:0.154813;filter:url(#filter2564-2)"
       id="rect368-3-6-5-6-5"
       width="89.605644"
       height="13.714869"
       x="-15.269791"
       y="-39.632458"
       inkscape:label="Upper Row"
       transform="matrix(0.48072281,0,0,0.48072281,11.657403,23.400028)" /><text
       xml:space="preserve"
       style="font-weight:bold;font-size:4.4093px;line-height:1;font-family:'LEMON MILK';-inkscape-font-specification:'LEMON MILK Bold';text-align:center;letter-spacing:-0.127191px;text-anchor:middle;display:inline;fill:#000000;fill-opacity:1;stroke-width:0.284753"
       x="16.788794"
       y="9.3074656"
       id="text40490-5-4-2-6"
       inkscape:label="Upper Row Title"><tspan
         sodipodi:role="line"
         id="tspan40488-0-6-0-8"
         style="font-style:normal;font-variant:normal;font-weight:bold;font-stretch:normal;font-size:4.4093px;font-family:Helvetica-Black;-inkscape-font-specification:'Helvetica-Black Bold';fill:#000000;stroke-width:0.284754"
         x="16.725199"
         y="9.3074656">Inkscape</tspan></text><circle
       style="display:inline;fill:#ff6600;fill-opacity:1;stroke-width:0.226157"
       id="path3870-9-6-61-3-3-8"
       cx="43.851677"
       cy="13.154955"
       r="1.5770199"
       inkscape:label="Red Ball" /><path
       style="display:inline;fill:#ffff00;stroke-width:0.0097096"
       d="m 43.299646,13.859093 c 0.03735,-0.118013 0.180723,-0.560778 0.186674,-0.576593 0.0024,-0.0061 -0.127694,-0.106552 -0.288823,-0.223325 l -0.292971,-0.212306 0.360873,-0.0024 0.360874,-0.0024 0.01283,-0.03144 c 0.007,-0.01731 0.05814,-0.172319 0.113546,-0.344505 0.0554,-0.172185 0.102913,-0.313065 0.105581,-0.313065 0.0029,0 0.05019,0.14088 0.105591,0.313065 0.0554,0.172186 0.106495,0.327214 0.113542,0.344505 l 0.01278,0.03144 0.360965,0.0024 0.36097,0.0024 -0.293035,0.212378 c -0.161171,0.116811 -0.291188,0.217306 -0.288919,0.223325 0.0059,0.01576 0.149375,0.458835 0.186646,0.576521 0.01731,0.05474 0.02875,0.09944 0.02533,0.09933 -0.0034,-1.06e-4 -0.135083,-0.09393 -0.292621,-0.208495 -0.157533,-0.114565 -0.288617,-0.208263 -0.29129,-0.208214 -0.0029,4.8e-5 -0.133746,0.0938 -0.291284,0.208344 -0.157538,0.114542 -0.289218,0.208326 -0.292616,0.208408 -0.0034,9.1e-5 0.008,-0.04462 0.02534,-0.09937 z"
       id="path4453-4" /><circle
       style="display:inline;fill:#ff6600;fill-opacity:1;stroke-width:0.226157"
       id="path3870-9-6-61-3-3-8-3"
       cx="39.936035"
       cy="13.149158"
       r="1.5770199"
       inkscape:label="Red Ball" /><path
       style="display:inline;fill:#ffff00;stroke-width:0.0097096"
       d="m 39.384007,13.853295 c 0.03735,-0.118013 0.180723,-0.560778 0.186674,-0.576593 0.0024,-0.0061 -0.127694,-0.106552 -0.288823,-0.223325 l -0.292971,-0.212306 0.360873,-0.0024 0.360874,-0.0024 0.01283,-0.03144 c 0.007,-0.01731 0.05814,-0.172319 0.113546,-0.344505 0.0554,-0.172185 0.102913,-0.313065 0.105581,-0.313065 0.0029,0 0.05019,0.14088 0.105591,0.313065 0.0554,0.172186 0.106495,0.327214 0.113542,0.344505 l 0.01278,0.03144 0.360965,0.0024 0.36097,0.0024 -0.293035,0.212378 c -0.161171,0.116811 -0.291188,0.217306 -0.288919,0.223325 0.0059,0.01576 0.149375,0.458835 0.186646,0.576521 0.01731,0.05474 0.02875,0.09944 0.02533,0.09933 -0.0034,-1.06e-4 -0.135083,-0.09393 -0.292621,-0.208495 -0.157533,-0.114565 -0.288617,-0.208263 -0.29129,-0.208214 -0.0029,4.8e-5 -0.133746,0.0938 -0.291284,0.208344 -0.157538,0.114542 -0.289218,0.208326 -0.292616,0.208408 -0.0034,9.1e-5 0.008,-0.04462 0.02534,-0.09937 z"
       id="path4453-4-6" /><circle
       style="display:inline;fill:#ff6600;fill-opacity:1;stroke-width:0.226157"
       id="path3870-9-6-61-3-3-8-7"
       cx="36.235226"
       cy="13.102109"
       r="1.5770199"
       inkscape:label="Red Ball" /><path
       style="display:inline;fill:#ffff00;stroke-width:0.0097096"
       d="m 35.683194,13.806248 c 0.03735,-0.118013 0.180723,-0.560778 0.186674,-0.576593 0.0024,-0.0061 -0.127694,-0.106552 -0.288823,-0.223325 l -0.292971,-0.212306 0.360873,-0.0024 0.360874,-0.0024 0.01283,-0.03144 c 0.007,-0.01731 0.05814,-0.172319 0.113546,-0.344505 0.0554,-0.172185 0.102913,-0.313065 0.105581,-0.313065 0.0029,0 0.05019,0.14088 0.105591,0.313065 0.0554,0.172186 0.106495,0.327214 0.113542,0.344505 l 0.01278,0.03144 0.360965,0.0024 0.36097,0.0024 -0.293035,0.212378 c -0.161171,0.116811 -0.291188,0.217306 -0.288919,0.223325 0.0059,0.01576 0.149375,0.458835 0.186646,0.576521 0.01731,0.05474 0.02875,0.09944 0.02533,0.09933 -0.0034,-1.06e-4 -0.135083,-0.09393 -0.292621,-0.208495 -0.157533,-0.114565 -0.288617,-0.208263 -0.29129,-0.208214 -0.0029,4.8e-5 -0.133746,0.0938 -0.291284,0.208344 -0.157538,0.114542 -0.289218,0.208326 -0.292616,0.208408 -0.0034,9.1e-5 0.008,-0.04462 0.02534,-0.09937 z"
       id="path4453-4-5" /><circle
       style="display:inline;fill:#ff6600;fill-opacity:1;stroke-width:0.226157"
       id="path3870-9-6-61-3-3-8-35"
       cx="32.490078"
       cy="13.110515"
       r="1.5770199"
       inkscape:label="Red Ball" /><path
       style="display:inline;fill:#ffff00;stroke-width:0.0097096"
       d="m 31.938047,13.814653 c 0.03735,-0.118013 0.180723,-0.560778 0.186674,-0.576593 0.0024,-0.0061 -0.127694,-0.106552 -0.288823,-0.223325 l -0.292971,-0.212306 0.360873,-0.0024 0.360874,-0.0024 0.01283,-0.03144 c 0.007,-0.01731 0.05814,-0.172319 0.113546,-0.344505 0.0554,-0.172185 0.102913,-0.313065 0.105581,-0.313065 0.0029,0 0.05019,0.14088 0.105591,0.313065 0.0554,0.172186 0.106495,0.327214 0.113542,0.344505 l 0.01278,0.03144 0.360965,0.0024 0.36097,0.0024 -0.293035,0.212378 c -0.161171,0.116811 -0.291188,0.217306 -0.288919,0.223325 0.0059,0.01576 0.149375,0.458835 0.186646,0.576521 0.01731,0.05474 0.02875,0.09944 0.02533,0.09933 -0.0034,-1.06e-4 -0.135083,-0.09393 -0.292621,-0.208495 -0.157533,-0.114565 -0.288617,-0.208263 -0.29129,-0.208214 -0.0029,4.8e-5 -0.133746,0.0938 -0.291284,0.208344 -0.157538,0.114542 -0.289218,0.208326 -0.292616,0.208408 -0.0034,9.1e-5 0.008,-0.04462 0.02534,-0.09937 z"
       id="path4453-4-62" /><circle
       style="display:inline;fill:#ececec;fill-opacity:1;stroke-width:0.192438"
       id="path20219-3-1-6"
       cx="44.155163"
       cy="7.4221506"
       r="2.5222583"
       inkscape:label="Type" /><path
       style="fill:#000000;stroke-width:0.548187"
       d="m 24.229332,50.586782 c -0.39077,-0.199645 -0.53752,-0.397575 -0.68978,-0.930351 -0.301209,-1.053966 -0.943297,-1.482996 -2.657438,-1.775642 -0.279204,-0.04767 -0.719766,-0.216056 -0.979027,-0.374197 -0.65583,-0.400034 -0.615939,-0.824047 0.159015,-1.690256 0.932816,-1.042659 1.016765,-1.252457 0.67501,-1.686927 -0.3779,-0.480423 -1.171629,-0.837438 -3.905642,-1.75674 -2.808219,-0.944252 -3.564016,-1.332878 -3.564016,-1.832591 0,-0.305312 0.177086,-0.447596 1.16984,-0.939938 1.581943,-0.78454 1.948545,-1.044041 1.948545,-1.379288 0,-0.363135 -0.51853,-0.581494 -2.554733,-1.075825 -3.308127,-0.803117 -4.2998911,-1.321438 -4.4924511,-2.347867 -0.0745,-0.39714 0.0056,-0.70562 0.383117,-1.475593 0.4015421,-0.818947 0.9848261,-1.491539 3.6743281,-4.236909 7.837157,-7.999956 9.76945,-9.910065 10.314316,-10.195897 0.439572,-0.230596 0.843777,-0.304281 1.667974,-0.304062 1.783556,4.7e-4 1.850067,0.0527 7.766477,6.099367 7.930747,8.105346 8.401157,8.613093 8.696702,9.386965 0.219444,0.574604 0.233023,0.768512 0.08778,1.253297 -0.384696,1.283985 -1.80495,2.13116 -5.939075,3.542627 -1.542431,0.526615 -3.064016,1.089917 -3.3813,1.251784 -0.775534,0.395648 -0.716879,0.78659 0.205087,1.366936 2.05771,1.295256 2.06394,1.300295 2.110714,1.707306 0.06368,0.554152 -0.471565,1.364491 -1.112356,1.684049 -0.291108,0.145174 -0.97471,0.373535 -1.519115,0.507468 -1.360741,0.334768 -2.213864,0.762659 -2.975395,1.492334 -0.735109,0.704358 -0.701905,0.859124 0.293231,1.366805 0.895525,0.456863 0.704184,0.846944 -0.783911,1.598132 -0.975342,0.492351 -2.792308,0.999176 -3.580821,0.998834 -0.286387,-1.24e-4 -0.744071,-0.114343 -1.017076,-0.253821 z m 1.859007,-10.06079 c 0.181238,-0.168849 0.27513,-0.359574 0.20865,-0.423833 -0.06648,-0.06426 -1.263072,-0.350365 -2.659093,-0.635791 -1.396021,-0.285427 -2.880707,-0.610897 -3.299302,-0.723267 -1.585174,-0.425535 -0.738735,0.283334 1.295971,1.08534 1.231587,0.485446 3.05233,0.988529 3.607695,0.996829 0.333687,0.005 0.633212,-0.100962 0.846079,-0.299278 z m -0.03742,-12.69676 1.537781,-0.965343 0.934343,0.460744 c 0.513888,0.25341 0.984654,0.429651 1.046145,0.391648 0.06149,-0.038 0.194774,-0.626791 0.296183,-1.308416 0.101409,-0.681625 0.215384,-1.239318 0.253279,-1.239318 0.0379,0 0.553046,0.395609 1.144779,0.879132 0.596413,0.487347 1.148139,0.834474 1.238024,0.778923 0.09887,-0.06111 0.131493,-0.328726 0.08359,-0.685842 -0.07091,-0.528646 -0.337141,-0.845835 -2.736097,-3.259755 -2.760129,-2.777347 -3.356551,-3.215076 -4.388508,-3.220836 -1.041947,-0.0058 -1.676254,0.463432 -4.417867,3.268255 -2.865392,2.931456 -3.202022,3.450341 -2.717836,4.189301 0.307373,0.469111 0.612835,0.539195 2.121688,0.486796 l 1.232292,-0.04279 0.819872,-1.424049 c 0.450929,-0.783226 0.849819,-1.370643 0.886421,-1.30537 0.0366,0.06527 0.279231,0.983486 0.539176,2.040473 0.259944,1.056988 0.4988,1.921795 0.530789,1.921795 0.03199,0 0.750165,-0.434404 1.595946,-0.965343 z m -9.699499,19.02066 c -0.789139,-0.442432 -0.695466,-1.364356 0.184227,-1.813141 0.681335,-0.347592 2.117399,-0.39298 2.541991,-0.08034 0.278492,0.205061 0.278426,0.213141 -0.006,0.745492 -0.547635,1.024834 -1.912467,1.600832 -2.720174,1.147991 z m 19.381811,-0.580274 c -0.401803,-0.401803 -0.375026,-0.80071 0.08603,-1.281683 0.246798,-0.257456 0.280062,-0.258189 0.787588,-0.01735 0.891086,0.422848 1.241866,1.210234 0.674445,1.513909 -0.498401,0.266736 -1.158012,0.175181 -1.548067,-0.214874 z m 1.477636,-2.439556 c -0.312696,-0.09435 -0.593481,-0.246367 -0.623966,-0.337821 -0.03048,-0.09145 0.140639,-0.389585 0.380274,-0.662515 0.445226,-0.507085 1.237577,-0.838947 1.989388,-0.833222 0.886797,0.0068 2.086269,0.819931 2.086269,1.414379 0,0.542544 -2.512259,0.81736 -3.831965,0.419179 z"
       id="path1" /><path
       style="fill:#000000;stroke-width:0.0612322"
       d="m 43.998369,9.1327855 c -0.04365,-0.022306 -0.06004,-0.044409 -0.07705,-0.1039192 -0.03364,-0.1177267 -0.105366,-0.1656495 -0.296834,-0.1983377 -0.03119,-0.00531 -0.0804,-0.024135 -0.109356,-0.041796 -0.07326,-0.044687 -0.0688,-0.092046 0.01776,-0.1888 0.104195,-0.1164639 0.113571,-0.1398985 0.0754,-0.1884283 -0.04221,-0.053665 -0.13087,-0.093541 -0.436257,-0.196226 -0.313676,-0.105472 -0.398098,-0.1488815 -0.398098,-0.2046991 0,-0.034105 0.01978,-0.049997 0.13067,-0.1049906 0.176702,-0.087632 0.217651,-0.1166185 0.217651,-0.1540651 0,-0.040562 -0.05792,-0.064952 -0.285361,-0.1201688 -0.369513,-0.089709 -0.480292,-0.1476054 -0.501801,-0.2622567 -0.0083,-0.04436 6.16e-4,-0.078817 0.04279,-0.1648226 0.04485,-0.091476 0.110004,-0.1666035 0.41042,-0.4732591 0.875404,-0.8935886 1.09124,-1.1069461 1.1521,-1.1388733 0.0491,-0.025757 0.09425,-0.033989 0.186312,-0.033964 0.199222,5.24e-5 0.206651,0.00588 0.867509,0.6812944 0.885858,0.9053602 0.938402,0.9620752 0.971414,1.0485163 0.02452,0.064183 0.02602,0.085842 0.0098,0.1399921 -0.04297,0.1434203 -0.201612,0.238049 -0.66339,0.3957086 -0.172289,0.058823 -0.342248,0.1217428 -0.377688,0.1398232 -0.08663,0.044193 -0.08008,0.087862 0.0229,0.1526856 0.229845,0.1446791 0.23054,0.1452423 0.235765,0.1907053 0.0071,0.061901 -0.05267,0.1524119 -0.124249,0.1881062 -0.03251,0.016219 -0.108875,0.04172 -0.169684,0.056683 -0.151994,0.037396 -0.247287,0.085188 -0.332349,0.1666923 -0.08211,0.078677 -0.0784,0.095963 0.03275,0.1526708 0.100031,0.051027 0.07866,0.094603 -0.08756,0.1785103 -0.108946,0.054997 -0.311899,0.1116074 -0.399975,0.1115686 -0.03199,-1.35e-5 -0.08311,-0.012771 -0.113607,-0.02835 z m 0.20765,-1.123781 c 0.02024,-0.018861 0.03074,-0.040165 0.02331,-0.047342 -0.0074,-0.00717 -0.141085,-0.039136 -0.297019,-0.071018 -0.155934,-0.031882 -0.321773,-0.068237 -0.368529,-0.080788 -0.177063,-0.047532 -0.08251,0.03165 0.144759,0.121232 0.137567,0.054223 0.340942,0.1104169 0.402976,0.1113442 0.03727,5.48e-4 0.07073,-0.011279 0.09451,-0.033433 z m -0.0042,-1.4182182 0.171769,-0.1078282 0.104365,0.051465 c 0.0574,0.028304 0.109985,0.047991 0.116853,0.043747 0.0068,-0.00424 0.02176,-0.070012 0.03309,-0.1461488 0.01133,-0.076137 0.02406,-0.1384309 0.02829,-0.1384309 0.0042,0 0.06177,0.044189 0.127871,0.098198 0.06662,0.054436 0.128246,0.09321 0.138286,0.087005 0.01104,-0.00683 0.01469,-0.036719 0.0093,-0.076608 -0.0079,-0.05905 -0.03766,-0.094479 -0.30562,-0.3641121 -0.308306,-0.3102274 -0.374926,-0.3591215 -0.490194,-0.3597648 -0.116385,-6.472e-4 -0.187237,0.051765 -0.493473,0.3650613 -0.320062,0.3274414 -0.357663,0.3854004 -0.30358,0.4679416 0.03433,0.052399 0.06845,0.060227 0.236991,0.054375 l 0.137646,-0.00478 0.09158,-0.1590649 c 0.05037,-0.087486 0.09492,-0.1530998 0.09901,-0.1458087 0.0041,0.00729 0.03119,0.1098543 0.06022,0.2279189 0.02903,0.1180649 0.05571,0.2146631 0.05929,0.2146631 0.0035,0 0.0838,-0.048522 0.178266,-0.1078283 z m -1.083442,2.1245918 c -0.08814,-0.049417 -0.07768,-0.1523968 0.02058,-0.2025258 0.07611,-0.038829 0.236512,-0.043895 0.283939,-0.00898 0.03111,0.022904 0.0311,0.023806 -6.85e-4,0.083272 -0.06117,0.1144727 -0.213621,0.1788114 -0.303842,0.1282297 z m 2.164933,-0.064818 c -0.04488,-0.044881 -0.04189,-0.089439 0.0096,-0.1431625 0.02757,-0.028755 0.03128,-0.028839 0.08797,-0.00194 0.09953,0.047233 0.138715,0.1351827 0.07534,0.1691025 -0.05567,0.029792 -0.12935,0.019566 -0.172918,-0.024 z m 0.165051,-0.2724965 c -0.03493,-0.010537 -0.06629,-0.027515 -0.0697,-0.037733 -0.0034,-0.010217 0.01571,-0.043516 0.04248,-0.073999 0.04973,-0.056641 0.138236,-0.09371 0.222213,-0.093071 0.09905,7.537e-4 0.233035,0.091586 0.233035,0.157985 0,0.060603 -0.280618,0.091299 -0.428028,0.04682 z"
       id="path1-9" /></g></svg>
